<?xml version="1.0" standalone="no"?>
<!DOCTYPE svg PUBLIC "-//W3C//DTD SVG 20010904//EN"
 "http://www.w3.org/TR/2001/REC-SVG-20010904/DTD/svg10.dtd">
<svg version="1.0" xmlns="http://www.w3.org/2000/svg"
 width="700.000000pt" height="700.000000pt" viewBox="0 0 700.000000 700.000000"
 preserveAspectRatio="xMidYMid meet">
<metadata>
Created by potrace 1.14, written by Peter Selinger 2001-2017
</metadata>
<g transform="translate(0.000000,700.000000) scale(0.100000,-0.100000)"
fill="#000000" stroke="none">
<path d="M3372 6989 c-64 -11 -182 -59 -246 -100 -103 -65 -207 -185 -256
-296 l-24 -53 -260 -1 c-144 0 -278 -3 -299 -5 -128 -16 -260 -99 -329 -210
-34 -53 -67 -149 -71 -203 l-4 -45 -429 -2 c-257 -1 -441 -5 -460 -11 -74 -25
-150 -71 -203 -125 -66 -65 -102 -131 -128 -230 -10 -38 -10 -5278 0 -5333 30
-169 175 -320 347 -361 74 -18 4888 -21 4972 -3 166 35 324 193 354 354 4 22
8 1221 9 2665 1 2191 -1 2635 -12 2685 -38 165 -157 292 -327 347 -19 7 -197
11 -451 12 -232 1 -425 5 -431 8 -5 4 -11 25 -12 48 -9 137 -121 295 -256 360
-99 47 -116 49 -453 49 l-252 1 -7 23 c-18 58 -94 168 -163 237 -57 57 -99 87
-168 123 -51 26 -93 46 -93 43 0 -2 -21 2 -47 10 -60 18 -231 26 -301 13z
m221 -470 c116 -60 167 -188 118 -301 -37 -86 -116 -138 -211 -138 -137 0
-238 110 -227 245 7 95 64 168 156 202 40 14 128 10 164 -8z"/>
</g>
</svg>
